<svg xmlns="http://www.w3.org/2000/svg" height="24" viewBox="0 -960 960 960" width="24"><path d="M566.218-369.565q17 0 29.5-12.5t12.5-29.5q0-17-12.5-29.5t-29.5-12.5q-17 0-29.5 12.5t-12.5 29.5q0 17 12.5 29.5t29.5 12.5Zm-30-123.935h60q0-26.13 6.358-40.109 6.359-13.978 26.924-34.543 29.761-29.761 39.881-48.5 10.119-18.739 10.119-43.261 0-45.478-31.38-73.739-31.381-28.261-82.646-28.261-41.213 0-71.713 22.88-30.5 22.881-42.261 60.881l54 22q8.761-24.522 24.261-37.142 15.5-12.619 35.717-12.619 24.261 0 39.142 13.38 14.88 13.381 14.88 35.903 0 14.115-8 26.718t-28 31.76q-31.565 28.043-39.424 45.022-7.858 16.978-7.858 59.63ZM328.37-237.37q-37.783 0-64.392-26.608-26.608-26.609-26.608-64.392v-474.26q0-37.783 26.608-64.392 26.609-26.609 64.392-26.609h474.26q37.783 0 64.392 26.609 26.609 26.609 26.609 64.392v474.26q0 37.783-26.609 64.392-26.609 26.608-64.392 26.608H328.37Zm-171 171q-37.783 0-64.392-26.608-26.609-26.609-26.609-64.392v-565.26h91.001v565.26h565.26v91H157.37Z"/></svg>