<svg xmlns="http://www.w3.org/2000/svg" height="24" viewBox="0 -960 960 960" width="24"><path d="M440-120v-80h320v-284q0-58-22-109t-60-89q-38-38-89-60t-109-22q-58 0-109 22t-89 60q-38 38-60 89t-22 109v244h-40q-33 0-56.5-23.5T80-320v-80q0-23 11-40.5t29-28.5l3-53q9-73 41.5-132t81-100q48.5-41 109-63.5T480-840q66 0 126.5 22.5t108.5 64q48 41.5 80.5 100T837-523l3 52q18 9 29 26.5t11 38.5v92q0 22-11 39t-29 26v49q0 33-23.5 56.5T760-120H440Zm-80-280q-17 0-28.5-11.5T320-440q0-17 11.5-28.5T360-480q17 0 28.5 11.5T400-440q0 17-11.5 28.5T360-400Zm240 0q-17 0-28.5-11.5T560-440q0-17 11.5-28.5T600-480q17 0 28.5 11.5T640-440q0 17-11.5 28.5T600-400Zm-359-62q-4-59 16.5-107t55-81.5Q347-684 392-702t90-18q91 0 157.5 57.5T720-519q-94-1-170-50.5T435-698q-16 81-67.5 143.5T241-462Z"/></svg>